/* XPM */
static const char * sample_xpm[] = {
"62 32 266 2",
"  	c None",
". 	c #F3F004",
"+ 	c #184271",
"@ 	c #184270",
"# 	c #1A4271",
"$ 	c #C4CCD7",
"% 	c #B7BF1E",
"& 	c #194371",
"* 	c #315680",
"= 	c #204775",
"- 	c #163F6E",
"; 	c #174170",
"> 	c #3E6086",
", 	c #7B92AC",
"' 	c #5D799A",
") 	c #577696",
"! 	c #8499B1",
"~ 	c #637E9E",
"{ 	c #748DA8",
"] 	c #5E7A9A",
"^ 	c #617D9C",
"/ 	c #BCC7D4",
"( 	c #B8C4D1",
"_ 	c #788FAA",
": 	c #7F95AE",
"< 	c #5E7A9B",
"[ 	c #587596",
"} 	c #BEC9D5",
"| 	c #2B507B",
"1 	c #4E6E91",
"2 	c #869AB3",
"3 	c #5F7B9B",
"4 	c #8A9EB5",
"5 	c #31557F",
"6 	c #3D6087",
"7 	c #224975",
"8 	c #8095AE",
"9 	c #617C9C",
"0 	c #194170",
"a 	c #B1BDCD",
"b 	c #7A91AB",
"c 	c #284D79",
"d 	c #99ABBF",
"e 	c #2B507C",
"f 	c #506E91",
"g 	c #335881",
"h 	c #395C84",
"i 	c #31567F",
"j 	c #3D5F86",
"k 	c #284D7A",
"l 	c #7F95AF",
"m 	c #1F4673",
"n 	c #B2BECD",
"o 	c #7A91AC",
"p 	c #2D517C",
"q 	c #9CACC0",
"r 	c #4F6E91",
"s 	c #385B84",
"t 	c #3E6187",
"u 	c #B1BECD",
"v 	c #9CADC0",
"w 	c #3F6188",
"x 	c #294F7B",
"y 	c #1F4773",
"z 	c #B3BECD",
"A 	c #2E527D",
"B 	c #9DADC1",
"C 	c #3A5D85",
"D 	c #406389",
"E 	c #406288",
"F 	c #375A83",
"G 	c #1D4367",
"H 	c #1C4271",
"I 	c #1D4171",
"J 	c #1D4271",
"K 	c #66819F",
"L 	c #30557F",
"M 	c #446154",
"N 	c #1F4371",
"O 	c #BBC6D2",
"P 	c #8096AF",
"Q 	c #3F5F87",
"R 	c #A6B5C6",
"S 	c #2D527D",
"T 	c #537194",
"U 	c #426389",
"V 	c #1D4267",
"W 	c #4C6C90",
"X 	c #204875",
"Y 	c #91A3B9",
"Z 	c #D8DDE4",
"` 	c #2B4C78",
" .	c #9BABBE",
"..	c #8FA1B7",
"+.	c #8FA2B7",
"@.	c #92A4B9",
"#.	c #CDD4DE",
"$.	c #576837",
"%.	c #325680",
"&.	c #95A6BB",
"*.	c #DCE1E7",
"=.	c #AAB8C8",
"-.	c #8FA2B8",
";.	c #647E9E",
">.	c #BDC7D3",
",.	c #94A5B9",
"'.	c #D1D8E1",
").	c #B9C5D2",
"!.	c #8398B0",
"~.	c #2D537D",
"{.	c #345881",
"].	c #9AABBE",
"^.	c #738DA8",
"/.	c #294976",
"(.	c #D6DCE3",
"_.	c #1D4572",
":.	c #778FA9",
"<.	c #33537E",
"[.	c #7991AB",
"}.	c #244B78",
"|.	c #CBD4DC",
"1.	c #435D84",
"2.	c #48688D",
"3.	c #446288",
"4.	c #8399B1",
"5.	c #637943",
"6.	c #90A3B8",
"7.	c #1D4473",
"8.	c #8297B0",
"9.	c #284F7B",
"0.	c #728BA7",
"a.	c #32507B",
"b.	c #778EA9",
"c.	c #7C92AC",
"d.	c #7991AC",
"e.	c #2E537D",
"f.	c #2A507B",
"g.	c #3C5E85",
"h.	c #3B5D85",
"i.	c #3C5E86",
"j.	c #18416F",
"k.	c #A9B7C7",
"l.	c #284E7A",
"m.	c #8398B1",
"n.	c #B2BFCD",
"o.	c #324F7B",
"p.	c #7B91AC",
"q.	c #133E6E",
"r.	c #5C799A",
"s.	c #587597",
"t.	c #6E87A4",
"u.	c #7E94AD",
"v.	c #7D93AD",
"w.	c #A8B6C7",
"x.	c #A7B6C6",
"y.	c #8EA2B8",
"z.	c #294E7A",
"A.	c #8298B1",
"B.	c #B1BFCD",
"C.	c #7B92AB",
"D.	c #627E9D",
"E.	c #98AABE",
"F.	c #98AABF",
"G.	c #97A8BC",
"H.	c #B7C2D1",
"I.	c #30547E",
"J.	c #A8B6C6",
"K.	c #1A3149",
"L.	c #1A314A",
"M.	c #00144F",
"N.	c #7C93AD",
"O.	c #889EB4",
"P.	c #3E6087",
"Q.	c #899EB5",
"R.	c #3E6088",
"S.	c #193F6F",
"T.	c #183F6F",
"U.	c #1D4166",
"V.	c #95A7BC",
"W.	c #406188",
"X.	c #7E95AE",
"Y.	c #BAC5D1",
"Z.	c #A9B6C7",
"`.	c #ABB9C9",
" +	c #355981",
".+	c #7992AC",
"++	c #254C79",
"@+	c #778FAA",
"#+	c #2A4F7A",
"$+	c #A6B4C5",
"%+	c #254B78",
"&+	c #2F527E",
"*+	c #738CA8",
"=+	c #8197B0",
"-+	c #D0D7DF",
";+	c #2E4F7A",
">+	c #8197AF",
",+	c #8399B2",
"'+	c #2C527D",
")+	c #DEE3E8",
"!+	c #BAC11C",
"~+	c #ACBAC9",
"{+	c #748CA8",
"]+	c #527094",
"^+	c #8298B0",
"/+	c #AAB7C8",
"(+	c #7D92AC",
"_+	c #859BB2",
":+	c #627D9C",
"<+	c #33507C",
"[+	c #7B91AB",
"}+	c #42638A",
"|+	c #4E6D91",
"1+	c #334F7A",
"2+	c #C6CFD9",
"3+	c #6982A1",
"4+	c #4E6C90",
"5+	c #254875",
"6+	c #173E6E",
"7+	c #385680",
"8+	c #BFC9D4",
"9+	c #8B9FB6",
"0+	c #36547F",
"a+	c #34547E",
"b+	c #35547E",
"c+	c #304C79",
"d+	c #B1BDCC",
"e+	c #617D9B",
"f+	c #254B77",
"g+	c #AEBBCA",
"h+	c #2F547E",
"i+	c #A2B3C5",
"j+	c #294F7A",
"k+	c #244A77",
"l+	c #AEBACA",
"m+	c #95A7BB",
"n+	c #CCD3DD",
"o+	c #32567F",
"p+	c #3E5F86",
"q+	c #244A76",
"r+	c #537294",
"s+	c #96A7BC",
"t+	c #B6BC18",
"u+	c #D4DAE2",
"v+	c #3D5F87",
"w+	c #214976",
"x+	c #AFBCCB",
"y+	c #1F4674",
"z+	c #ADBACA",
"A+	c #7089A5",
"B+	c #91A4B9",
"C+	c #BFCBD5",
"D+	c #3D6085",
"E+	c #6681A0",
"F+	c #66809F",
"G+	c #6781A0",
"H+	c #627D9D",
"I+	c #C5CED9",
"J+	c #B8C3D0",
"K+	c #6983A1",
"L+	c #6882A1",
"M+	c #365982",
"N+	c #637D47",
"O+	c #446555",
"P+	c #8A9C34",
"Q+	c #446455",
"                                                                                                                            ",
"                                                                                                                            ",
"  . + @ @ @ @ @ @ @ @ @ @ @ @ @ @ @ @ @ @ @ .   . # @ @ @ @ @ @ @ @ @ . $ % & @ @ @ @ @ @ @ @ . * = - ; ; @ @ @ @ @ @ ; .   ",
"  > , ' ' ' ' ' ' ' ' ' ' ' ' ' ' ' ' ' ' ) !   ~ { ' ' ' ' ' ' ' ] ^ / ( _ : < ' ' ' ' ' ' [ } | 1 2 ] 3 ' ' ' ' ' ' 4 5   ",
"  6 7 . . . . . . . . . . . . . . . . . . . 8   9 0 . . . . . . . . . a ( b c . . . . . . . . d e f g . . . . . . . . h i   ",
"  j k . . . . . . . . . . . . . . . . . . . l   ^ m . . . . . . . . . n ( o p . . . . . . . . q e r s . . . . . . . . t 5   ",
"  j k . . . . . . . . . . . . . . . . . . . l   ^ m . . . . . . . . . u ( o p . . . . . . . . v e r s . . . . . . . . w 5   ",
"  j x . . . . . . . . . . . . . . . . . . . l   ^ y . . . . . . . . . z ( b A . . . . . . . . B e r C . . . . . . . . D 5   ",
"  E F G . . . . . . . H I I J . . . . . . . l   K L M . . . . . . . N O ( P Q M . . . . . . . R S T U . . . . . . . V W g   ",
"  X Y Z ` . . . . . ,  ...+.@.#.$.. . . . . :   %.&.*.. . . . . . =.-.;.>.t ,.'.. . . . . . ).!.~.{.].^.. . . . . /.(.Y _.  ",
"      :.<.. . . . . [.}.      |.1.2.2.2.2.3.4.      R 5.. . . . . 6.7.        8.. . . . . . n       9.0.. . . . . a.b.      ",
"      c.<.. . . . . d.e.      f.j g.h.h.h.i.j.      k.5.. . . . . -.l.        m.. . . . . . n.      5 0.. . . . . o.,       ",
"      p.<.. . . . . , q.r.s.t.u.v.w.                x.5.. . . . . y.z.        A.. . . . . . B.      5 0.. . . . . o.C.      ",
"      p.<.. . . . . D.=.E.F.E.G.H.I.                J.5.. . . . . y.z.        A.. . . . . . n.      5 0.. . . . . o.C.      ",
"      p.<.. . . . . . K.L.L.L.M.N.w                 J.5.. . . . . y.z.        A.. . . . . . n.      5 0.. . . . . o.C.      ",
"      p.<.. . . . . . . . . . . O.P.                J.5.. . . . . y.z.        A.. . . . . . n.      5 0.. . . . . o.C.      ",
"      p.<.. . . . . . . . . . . O.P.                J.5.. . . . . y.z.        A.. . . . . . n.      5 0.. . . . . o.C.      ",
"      p.<.. . . . . . . . . . . Q.R.                J.5.. . . . . y.z.        A.. . . . . . n.      5 0.. . . . . o.C.      ",
"      p.<.. . . . . . S.T.T.T.U.V.W.                J.5.. . . . . y.z.        A.. . . . . . n.      5 0.. . . . . o.C.      ",
"      p.<.. . . . . X.Y.k.Z.Z.Z.`. +                x.5.. . . . . y.z.        A.. . . . . . n.      5 0.. . . . . o.C.      ",
"      c.<.. . . . . .+++                            k.5.. . . . . y.z.        A.. . . . . . B.      5 0.. . . . . o.C.      ",
"      @+<.. . . . . [.#+                            $+5.. . . . . -.%+        A.. . . . . . n.      &+*+. . . . . o.C.      ",
"  X =+-+;+. . . . . >+,+r.                      '+X.)+!+. . . . . ~+{+]+      ^+. . . . . . /+: (+, _+:+. . . . . <+[+      ",
"  }+|+` . . . . . . . 1+2+                      3+4+5+. . . . . . 6+7+8+      9+. . . . . . . 0+a+a+b+. . . . . . c+8.      ",
"  j l.. . . . . . . . . d+                      e+f+. . . . . . . . . g+      h+i+. . . . . . . . . . . . . . . . } j+      ",
"  j k . . . . . . . . . d+                      ^ k+. . . . . . . . . l+      ).'+m+. . . . . . . . . . . . . . n+o+        ",
"  p+k . . . . . . . . . d+                      ^ q+. . . . . . . . . l+        k.r+s+t+. . . . . . . . . . . u+h.          ",
"  v+w+. . . . . . . . . x+                      9 y+. . . . . . . . . z+          b A+B+. . . . . . . . . . C+h             ",
"  D+!.E+F+F+F+F+F+F+G+H+I+                      :+N.F+F+F+F+F+F+F+G+G+J+            D.K+B+L+F+F+F+F+F+F+9 `.M+              ",
"  . N+N+N+N+N+N+N+N+N+N+.                       . O+N+N+N+N+N+N+N+N+N+.                 . P+N+N+N+N+N+N+Q+.                 ",
"                                                                                                                            ",
"                                                                                                                            "};
